<svg width="22" height="22" viewBox="0 0 22 22" fill="none" xmlns="http://www.w3.org/2000/svg">
<mask id="path-1-outside-1_1_15" maskUnits="userSpaceOnUse" x="0" y="0" width="22" height="22" fill="black">
<rect fill="white" width="22" height="22"/>
<path fill-rule="evenodd" clip-rule="evenodd" d="M11 21C16.5228 21 21 16.5228 21 11C21 5.47715 16.5228 1 11 1C5.47715 1 1 5.47715 1 11C1 16.5228 5.47715 21 11 21ZM10.053 7C10.053 6.75913 9.85769 6.56386 9.61682 6.56386C9.37595 6.56386 9.18068 6.75913 9.18068 7V14.8505C9.18068 15.0913 9.37595 15.2866 9.61682 15.2866C9.85769 15.2866 10.053 15.0913 10.053 14.8505V7ZM15.2866 7C15.2866 6.75913 15.0913 6.56386 14.8505 6.56386C14.6096 6.56386 14.4143 6.75913 14.4143 7V14.8505C14.4143 15.0913 14.6096 15.2866 14.8505 15.2866C15.0913 15.2866 15.2866 15.0913 15.2866 14.8505V7ZM7.43614 10.4891C7.43614 10.2482 7.24087 10.053 7 10.053C6.75913 10.053 6.56386 10.2482 6.56386 10.4891L6.56386 14.8505C6.56386 15.0913 6.75913 15.2866 7 15.2866C7.24087 15.2866 7.43614 15.0913 7.43614 14.8505V10.4891ZM12.6698 10.4891C12.6698 10.2482 12.4745 10.053 12.2336 10.053C11.9928 10.053 11.7975 10.2482 11.7975 10.4891L11.7975 14.8505C11.7975 15.0913 11.9928 15.2866 12.2336 15.2866C12.4745 15.2866 12.6698 15.0913 12.6698 14.8505V10.4891Z"/>
</mask>
<path fill-rule="evenodd" clip-rule="evenodd" d="M11 21C16.5228 21 21 16.5228 21 11C21 5.47715 16.5228 1 11 1C5.47715 1 1 5.47715 1 11C1 16.5228 5.47715 21 11 21ZM10.053 7C10.053 6.75913 9.85769 6.56386 9.61682 6.56386C9.37595 6.56386 9.18068 6.75913 9.18068 7V14.8505C9.18068 15.0913 9.37595 15.2866 9.61682 15.2866C9.85769 15.2866 10.053 15.0913 10.053 14.8505V7ZM15.2866 7C15.2866 6.75913 15.0913 6.56386 14.8505 6.56386C14.6096 6.56386 14.4143 6.75913 14.4143 7V14.8505C14.4143 15.0913 14.6096 15.2866 14.8505 15.2866C15.0913 15.2866 15.2866 15.0913 15.2866 14.8505V7ZM7.43614 10.4891C7.43614 10.2482 7.24087 10.053 7 10.053C6.75913 10.053 6.56386 10.2482 6.56386 10.4891L6.56386 14.8505C6.56386 15.0913 6.75913 15.2866 7 15.2866C7.24087 15.2866 7.43614 15.0913 7.43614 14.8505V10.4891ZM12.6698 10.4891C12.6698 10.2482 12.4745 10.053 12.2336 10.053C11.9928 10.053 11.7975 10.2482 11.7975 10.4891L11.7975 14.8505C11.7975 15.0913 11.9928 15.2866 12.2336 15.2866C12.4745 15.2866 12.6698 15.0913 12.6698 14.8505V10.4891Z" fill="white"/>
<path d="M6.56386 10.4891L5.56386 10.4891L5.56386 10.4891L6.56386 10.4891ZM6.56386 14.8505L7.56386 14.8505L7.56386 14.8505L6.56386 14.8505ZM11.7975 10.4891L10.7975 10.4891L10.7975 10.4891L11.7975 10.4891ZM11.7975 14.8505L12.7975 14.8505L12.7975 14.8505L11.7975 14.8505ZM20 11C20 15.9706 15.9706 20 11 20V22C17.0751 22 22 17.0751 22 11H20ZM11 2C15.9706 2 20 6.02944 20 11H22C22 4.92487 17.0751 0 11 0V2ZM2 11C2 6.02944 6.02944 2 11 2V0C4.92487 0 0 4.92487 0 11H2ZM11 20C6.02944 20 2 15.9706 2 11H0C0 17.0751 4.92487 22 11 22V20ZM9.61682 7.56386C9.30541 7.56386 9.05296 7.31141 9.05296 7H11.053C11.053 6.20684 10.41 5.56386 9.61682 5.56386V7.56386ZM10.1807 7C10.1807 7.31141 9.92823 7.56386 9.61682 7.56386V5.56386C8.82366 5.56386 8.18068 6.20685 8.18068 7H10.1807ZM10.1807 14.8505V7H8.18068V14.8505H10.1807ZM9.61682 14.2866C9.92823 14.2866 10.1807 14.539 10.1807 14.8505H8.18068C8.18068 15.6436 8.82367 16.2866 9.61682 16.2866V14.2866ZM9.05296 14.8505C9.05296 14.539 9.30541 14.2866 9.61682 14.2866V16.2866C10.41 16.2866 11.053 15.6436 11.053 14.8505H9.05296ZM9.05296 7V14.8505H11.053V7H9.05296ZM14.8505 7.56386C14.539 7.56386 14.2866 7.31141 14.2866 7H16.2866C16.2866 6.20685 15.6436 5.56386 14.8505 5.56386V7.56386ZM15.4143 7C15.4143 7.31141 15.1619 7.56386 14.8505 7.56386V5.56386C14.0573 5.56386 13.4143 6.20684 13.4143 7H15.4143ZM15.4143 14.8505V7H13.4143V14.8505H15.4143ZM14.8505 14.2866C15.1619 14.2866 15.4143 14.539 15.4143 14.8505H13.4143C13.4143 15.6436 14.0573 16.2866 14.8505 16.2866V14.2866ZM14.2866 14.8505C14.2866 14.539 14.539 14.2866 14.8505 14.2866V16.2866C15.6436 16.2866 16.2866 15.6436 16.2866 14.8505H14.2866ZM14.2866 7V14.8505H16.2866V7H14.2866ZM7 11.053C6.68859 11.053 6.43614 10.8005 6.43614 10.4891H8.43614C8.43614 9.69594 7.79315 9.05296 7 9.05296V11.053ZM7.56386 10.4891C7.56386 10.8005 7.31141 11.053 7 11.053V9.05296C6.20685 9.05296 5.56386 9.69594 5.56386 10.4891H7.56386ZM7.56386 14.8505L7.56386 10.4891L5.56386 10.4891L5.56386 14.8505L7.56386 14.8505ZM7 14.2866C7.31141 14.2866 7.56386 14.539 7.56386 14.8505H5.56386C5.56386 15.6436 6.20684 16.2866 7 16.2866V14.2866ZM6.43614 14.8505C6.43614 14.539 6.68859 14.2866 7 14.2866V16.2866C7.79316 16.2866 8.43614 15.6436 8.43614 14.8505H6.43614ZM6.43614 10.4891V14.8505H8.43614V10.4891H6.43614ZM12.2336 11.053C11.9222 11.053 11.6698 10.8005 11.6698 10.4891H13.6698C13.6698 9.69593 13.0268 9.05296 12.2336 9.05296V11.053ZM12.7975 10.4891C12.7975 10.8005 12.5451 11.053 12.2336 11.053V9.05296C11.4405 9.05296 10.7975 9.69594 10.7975 10.4891H12.7975ZM12.7975 14.8505L12.7975 10.4891L10.7975 10.4891L10.7975 14.8505L12.7975 14.8505ZM12.2336 14.2866C12.5451 14.2866 12.7975 14.539 12.7975 14.8505H10.7975C10.7975 15.6436 11.4405 16.2866 12.2336 16.2866V14.2866ZM11.6698 14.8505C11.6698 14.539 11.9222 14.2866 12.2336 14.2866V16.2866C13.0268 16.2866 13.6698 15.6436 13.6698 14.8505H11.6698ZM11.6698 10.4891V14.8505H13.6698V10.4891H11.6698Z" fill="#F9F5FF" fill-opacity="0.21" mask="url(#path-1-outside-1_1_15)"/>
</svg>
