<svg width="25" height="25" viewBox="0 0 25 25" fill="none" xmlns="http://www.w3.org/2000/svg">
<g id="coins-hand">
<path id="Icon" d="M13.9494 8.76641C13.377 9.1745 12.6765 9.41455 11.9199 9.41455C9.98693 9.41455 8.41992 7.84755 8.41992 5.91455C8.41992 3.98155 9.98693 2.41455 11.9199 2.41455C13.1729 2.41455 14.2721 3.07297 14.8904 4.06269M6.41992 20.5017H9.03021C9.37055 20.5017 9.7088 20.5422 10.0387 20.6232L12.7968 21.2934C13.3953 21.4392 14.0187 21.4534 14.6234 21.336L17.6729 20.7427C18.4785 20.5857 19.2195 20.2 19.8003 19.6351L21.9578 17.5363C22.574 16.9379 22.574 15.967 21.9578 15.3676C21.4031 14.828 20.5246 14.7672 19.8971 15.2249L17.3825 17.0594C17.0224 17.3226 16.5842 17.4644 16.1336 17.4644H13.7054L15.251 17.4643C16.1221 17.4643 16.8278 16.7779 16.8278 15.9305V15.6237C16.8278 14.9201 16.3355 14.3065 15.634 14.1364L13.2485 13.5563C12.8603 13.4621 12.4627 13.4146 12.0631 13.4146C11.0983 13.4146 9.35182 14.2134 9.35182 14.2134L6.41992 15.4394M20.4199 6.91455C20.4199 8.84755 18.8529 10.4146 16.9199 10.4146C14.9869 10.4146 13.4199 8.84755 13.4199 6.91455C13.4199 4.98155 14.9869 3.41455 16.9199 3.41455C18.8529 3.41455 20.4199 4.98155 20.4199 6.91455ZM2.41992 15.0146L2.41992 20.8146C2.41992 21.3746 2.41992 21.6546 2.52892 21.8685C2.62479 22.0567 2.77777 22.2097 2.96593 22.3056C3.17984 22.4145 3.45987 22.4146 4.01992 22.4146H4.81992C5.37997 22.4146 5.66 22.4146 5.87391 22.3056C6.06207 22.2097 6.21505 22.0567 6.31093 21.8685C6.41992 21.6546 6.41992 21.3746 6.41992 20.8146V15.0146C6.41992 14.4545 6.41992 14.1745 6.31093 13.9606C6.21506 13.7724 6.06207 13.6194 5.87391 13.5235C5.66 13.4146 5.37997 13.4146 4.81992 13.4146L4.01992 13.4146C3.45987 13.4146 3.17984 13.4146 2.96593 13.5235C2.77777 13.6194 2.62479 13.7724 2.52892 13.9606C2.41992 14.1745 2.41992 14.4545 2.41992 15.0146Z" stroke="white" stroke-width="1.5" stroke-linecap="round" stroke-linejoin="round"/>
</g>
</svg>
