<svg width="16" height="16" viewBox="0 0 16 16" fill="none" xmlns="http://www.w3.org/2000/svg">
<g clip-path="url(#clip0_391_3596)">
<path d="M14.9114 0.25H0.588608C0.263529 0.25 0 0.513529 0 0.838608V15.1614C0 15.4865 0.263529 15.75 0.588608 15.75H14.9114C15.2365 15.75 15.5 15.4865 15.5 15.1614V0.838608C15.5 0.513529 15.2365 0.25 14.9114 0.25Z" fill="#27D07D"/>
<path d="M7.63376 10.6653V10.2677C7.63376 9.95849 7.7 9.67255 7.83253 9.40995C7.96754 9.14735 8.16264 8.9363 8.4179 8.77678C8.67312 8.61725 8.98483 8.53746 9.35295 8.53746C9.72846 8.53746 10.0438 8.61725 10.2991 8.77678C10.5568 8.93386 10.7506 9.14368 10.8807 9.40628C11.0132 9.66644 11.0795 9.95359 11.0795 10.2677V10.6653C11.0795 10.9746 11.0132 11.2605 10.8807 11.5231C10.7482 11.7857 10.5531 11.9967 10.2954 12.1563C10.0377 12.3158 9.72353 12.3956 9.35295 12.3956C8.97989 12.3956 8.66577 12.3158 8.41051 12.1563C8.15529 11.9967 7.96138 11.7857 7.82886 11.5231C7.69878 11.2605 7.63376 10.9746 7.63376 10.6653ZM8.80809 10.2677V10.6653C8.80809 10.8224 8.84614 10.9733 8.92222 11.1181C9.00078 11.2629 9.14436 11.3353 9.35295 11.3353C9.56649 11.3353 9.71007 11.2654 9.78369 11.1255C9.85732 10.9832 9.89411 10.8298 9.89411 10.6653V10.2677C9.89411 10.1033 9.85854 9.94866 9.78736 9.80386C9.71863 9.65661 9.57383 9.58298 9.35295 9.58298C9.1468 9.58298 9.00445 9.65661 8.92593 9.80386C8.84737 9.94866 8.80809 10.1033 8.80809 10.2677ZM3.72412 6.35074V5.95317C3.72412 5.63901 3.79161 5.35185 3.9266 5.09169C4.06403 4.82909 4.26039 4.61927 4.51561 4.46219C4.77087 4.30266 5.08009 4.2229 5.44332 4.2229C5.81883 4.2229 6.13422 4.30266 6.38944 4.46219C6.64714 4.61927 6.84224 4.82909 6.97476 5.09169C7.10733 5.35185 7.17357 5.63901 7.17357 5.95317V6.35074C7.17357 6.6649 7.10607 6.95202 6.97109 7.21217C6.83857 7.47233 6.64347 7.6797 6.38576 7.83434C6.12806 7.98897 5.81394 8.06626 5.44332 8.06626C5.07275 8.06626 4.75859 7.98775 4.50088 7.83066C4.24566 7.67358 4.05176 7.46499 3.91923 7.20483C3.78916 6.94468 3.72412 6.65997 3.72412 6.35074ZM4.90951 5.95317V6.35074C4.90951 6.51516 4.94757 6.66857 5.02364 6.81093C5.1022 6.95079 5.24207 7.02075 5.44332 7.02075C5.6593 7.02075 5.80288 6.95079 5.87406 6.81093C5.94769 6.66857 5.98448 6.51516 5.98448 6.35074V5.95317C5.98448 5.7887 5.95013 5.63411 5.8814 5.48931C5.81267 5.34206 5.66665 5.26839 5.44332 5.26839C5.23717 5.26839 5.09604 5.34328 5.01997 5.49298C4.94634 5.64268 4.90951 5.79609 4.90951 5.95317ZM4.28001 12.079L9.46341 4.53948H10.4684L5.28502 12.079H4.28001Z" fill="#F5F3F8"/>
</g>
<defs>
<clipPath id="clip0_391_3596">
<rect y="0.25" width="15.5" height="15.5" rx="1.63158" fill="white"/>
</clipPath>
</defs>
</svg>
