<svg width="14" height="14" viewBox="0 0 14 14" fill="none" xmlns="http://www.w3.org/2000/svg">
<rect x="0.0258789" width="13.9423" height="13.9423" rx="6.97115" fill="#27D07D"/>
<path d="M6.89197 9.19595V8.83831C6.89197 8.56015 6.95157 8.30297 7.07079 8.06675C7.1922 7.83054 7.36771 7.64068 7.5973 7.49719C7.82689 7.35369 8.10726 7.28195 8.4384 7.28195C8.77617 7.28195 9.05984 7.35369 9.28944 7.49719C9.52123 7.63848 9.69564 7.82723 9.81264 8.06344C9.93185 8.29745 9.99146 8.55574 9.99146 8.83831V9.19595C9.99146 9.4741 9.93185 9.73129 9.81264 9.96751C9.69343 10.2037 9.51792 10.3936 9.28612 10.5371C9.05432 10.6806 8.77175 10.7523 8.4384 10.7523C8.10284 10.7523 7.82027 10.6806 7.59068 10.5371C7.36109 10.3936 7.18669 10.2037 7.06747 9.96751C6.95047 9.73129 6.89197 9.4741 6.89197 9.19595ZM7.94831 8.83831V9.19595C7.94831 9.33723 7.98253 9.473 8.05097 9.60325C8.12161 9.7335 8.25075 9.79862 8.4384 9.79862C8.63046 9.79862 8.75961 9.73571 8.82584 9.60987C8.89207 9.48183 8.92518 9.34386 8.92518 9.19595V8.83831C8.92518 8.6904 8.89317 8.55132 8.82915 8.42107C8.76734 8.28862 8.63709 8.22239 8.4384 8.22239C8.25296 8.22239 8.12492 8.28862 8.05428 8.42107C7.98363 8.55132 7.94831 8.6904 7.94831 8.83831ZM3.37524 5.31496V4.95733C3.37524 4.67476 3.43595 4.41647 3.55737 4.18246C3.681 3.94625 3.85761 3.75749 4.0872 3.61621C4.31679 3.47271 4.59495 3.40097 4.92168 3.40097C5.25944 3.40097 5.54312 3.47271 5.77271 3.61621C6.00451 3.75749 6.18001 3.94625 6.29923 4.18246C6.41844 4.41647 6.47804 4.67476 6.47804 4.95733V5.31496C6.47804 5.59754 6.41733 5.85583 6.29591 6.08984C6.1767 6.32384 6.0012 6.51039 5.7694 6.64947C5.5376 6.78854 5.25503 6.85808 4.92168 6.85808C4.58833 6.85808 4.30575 6.78744 4.07395 6.64615C3.84436 6.50487 3.66996 6.31722 3.55075 6.08321C3.43375 5.84921 3.37524 5.59312 3.37524 5.31496ZM4.44152 4.95733V5.31496C4.44152 5.46287 4.47574 5.60085 4.54417 5.72889C4.61482 5.85473 4.74065 5.91764 4.92168 5.91764C5.11595 5.91764 5.24509 5.85473 5.30911 5.72889C5.37534 5.60085 5.40845 5.46287 5.40845 5.31496V4.95733C5.40845 4.80942 5.37755 4.67034 5.31573 4.54009C5.25392 4.40764 5.12257 4.34141 4.92168 4.34141C4.73624 4.34141 4.6093 4.40874 4.54086 4.5434C4.47463 4.67807 4.44152 4.81604 4.44152 4.95733ZM3.87527 10.4675L8.53774 3.68575H9.44176L4.77929 10.4675H3.87527Z" fill="#F5F3F8"/>
</svg>
