<svg width="23" height="23" viewBox="0 0 23 23" fill="none" xmlns="http://www.w3.org/2000/svg">
<g id="Frame 482016">
<path id="Icon" d="M11.9591 5.00719C11.9591 6.02175 9.69733 6.84422 6.90729 6.84422C4.11725 6.84422 1.85547 6.02175 1.85547 5.00719M11.9591 5.00719C11.9591 3.99263 9.69733 3.17017 6.90729 3.17017C4.11725 3.17017 1.85547 3.99263 1.85547 5.00719M11.9591 5.00719V9.10114C10.8371 9.43808 10.1221 9.94781 10.1221 10.5183M1.85547 5.00719V16.0293C1.85547 17.0439 4.11725 17.8664 6.90729 17.8664C8.12857 17.8664 9.24863 17.7088 10.1221 17.4465V10.5183M1.85547 8.68124C1.85547 9.6958 4.11725 10.5183 6.90729 10.5183C8.12857 10.5183 9.24863 10.3607 10.1221 10.0984M1.85547 12.3553C1.85547 13.3699 4.11725 14.1923 6.90729 14.1923C8.12857 14.1923 9.24863 14.0347 10.1221 13.7724M20.2257 10.5183C20.2257 11.5328 17.9639 12.3553 15.1739 12.3553C12.3839 12.3553 10.1221 11.5328 10.1221 10.5183M20.2257 10.5183C20.2257 9.50371 17.9639 8.68124 15.1739 8.68124C12.3839 8.68124 10.1221 9.50371 10.1221 10.5183M20.2257 10.5183V17.8664C20.2257 18.8809 17.9639 19.7034 15.1739 19.7034C12.3839 19.7034 10.1221 18.8809 10.1221 17.8664V10.5183M20.2257 14.1923C20.2257 15.2069 17.9639 16.0293 15.1739 16.0293C12.3839 16.0293 10.1221 15.2069 10.1221 14.1923" stroke="white" stroke-width="0.918513" stroke-linecap="round" stroke-linejoin="round"/>
</g>
</svg>
