<svg width="19" height="18" viewBox="0 0 19 18" fill="none" xmlns="http://www.w3.org/2000/svg">
<g clip-path="url(#clip0_42_7444)">
<path d="M6.77214 6.09245H6.77947M2.375 4.04045L2.375 7.31963C2.375 7.67813 2.375 7.85738 2.4155 8.02606C2.4514 8.17562 2.51062 8.31859 2.59099 8.44973C2.68163 8.59764 2.80838 8.72439 3.06187 8.97789L8.68188 14.5979C9.55255 15.4686 9.98788 15.9039 10.4899 16.067C10.9314 16.2105 11.4071 16.2105 11.8487 16.067C12.3507 15.9039 12.786 15.4686 13.6567 14.5979L15.2776 12.977C16.1482 12.1063 16.5836 11.671 16.7467 11.169C16.8902 10.7274 16.8902 10.2518 16.7467 9.81019C16.5836 9.30819 16.1482 8.87286 15.2776 8.00219L9.65758 2.38219C9.40408 2.12869 9.27733 2.00194 9.12942 1.9113C8.99828 1.83094 8.8553 1.77172 8.70575 1.73581C8.53706 1.69531 8.35781 1.69531 7.99931 1.69531L4.72014 1.69531C3.89926 1.69531 3.48883 1.69531 3.17529 1.85507C2.8995 1.99559 2.67528 2.21981 2.53475 2.49561C2.375 2.80914 2.375 3.21958 2.375 4.04045ZM7.13857 6.09245C7.13857 6.29482 6.97451 6.45888 6.77214 6.45888C6.56976 6.45888 6.40571 6.29482 6.40571 6.09245C6.40571 5.89008 6.56976 5.72602 6.77214 5.72602C6.97451 5.72602 7.13857 5.89008 7.13857 6.09245Z" stroke="#00D26B" stroke-width="1.8465" stroke-linecap="round" stroke-linejoin="round"/>
</g>
<defs>
<clipPath id="clip0_42_7444">
<rect width="17.5885" height="17.5885" fill="white" transform="translate(0.908203 0.229736)"/>
</clipPath>
</defs>
</svg>
