<svg width="20" height="20" viewBox="0 0 20 20" fill="none" xmlns="http://www.w3.org/2000/svg">
<path d="M5.83366 18.3334V9.16675M1.66699 10.8334V16.6667C1.66699 17.5872 2.41318 18.3334 3.33366 18.3334H14.5222C15.7561 18.3334 16.8055 17.4331 16.9931 16.2136L17.8906 10.3802C18.1235 8.86583 16.9518 7.50008 15.4196 7.50008H12.5003C12.0401 7.50008 11.667 7.12699 11.667 6.66675V3.72161C11.667 2.58674 10.747 1.66675 9.61213 1.66675C9.34144 1.66675 9.09614 1.82616 8.98621 2.07352L6.05361 8.67186C5.91986 8.9728 5.62142 9.16675 5.2921 9.16675H3.33366C2.41318 9.16675 1.66699 9.91294 1.66699 10.8334Z" stroke="#027A48" stroke-width="1.83333" stroke-linecap="round" stroke-linejoin="round"/>
</svg>
