<svg width="38" height="38" viewBox="0 0 38 38" fill="none" xmlns="http://www.w3.org/2000/svg">
<rect width="38" height="38" rx="1.44304" fill="#1BE080"/>
<path d="M18.7149 25.5343V24.5595C18.7149 23.8014 18.8773 23.1004 19.2022 22.4566C19.5332 21.8128 20.0115 21.2954 20.6373 20.9043C21.263 20.5132 22.0272 20.3176 22.9297 20.3176C23.8503 20.3176 24.6235 20.5132 25.2492 20.9043C25.881 21.2894 26.3563 21.8038 26.6752 22.4476C27.0001 23.0854 27.1626 23.7894 27.1626 24.5595V25.5343C27.1626 26.2924 27.0001 26.9934 26.6752 27.6372C26.3503 28.281 25.872 28.7984 25.2402 29.1895C24.6084 29.5806 23.8382 29.7762 22.9297 29.7762C22.0151 29.7762 21.245 29.5806 20.6192 29.1895C19.9935 28.7984 19.5181 28.281 19.1932 27.6372C18.8743 26.9934 18.7149 26.2924 18.7149 25.5343ZM21.5939 24.5595V25.5343C21.5939 25.9194 21.6872 26.2894 21.8737 26.6444C22.0663 26.9994 22.4183 27.1769 22.9297 27.1769C23.4532 27.1769 23.8052 27.0054 23.9857 26.6624C24.1662 26.3135 24.2564 25.9374 24.2564 25.5343V24.5595C24.2564 24.1564 24.1692 23.7773 23.9947 23.4223C23.8262 23.0613 23.4712 22.8808 22.9297 22.8808C22.4243 22.8808 22.0753 23.0613 21.8828 23.4223C21.6902 23.7773 21.5939 24.1564 21.5939 24.5595ZM9.12998 14.9566V13.9819C9.12998 13.2117 9.29544 12.5077 9.62637 11.8699C9.96331 11.2261 10.4447 10.7117 11.0704 10.3266C11.6962 9.93551 12.4543 9.73996 13.3448 9.73996C14.2654 9.73996 15.0386 9.93551 15.6643 10.3266C16.2961 10.7117 16.7744 11.2261 17.0993 11.8699C17.4243 12.5077 17.5867 13.2117 17.5867 13.9819V14.9566C17.5867 15.7268 17.4212 16.4307 17.0903 17.0685C16.7654 17.7063 16.2871 18.2147 15.6553 18.5938C15.0235 18.9729 14.2534 19.1624 13.3448 19.1624C12.4363 19.1624 11.6661 18.9699 11.0343 18.5848C10.4086 18.1997 9.93323 17.6883 9.60832 17.0505C9.28942 16.4127 9.12998 15.7147 9.12998 14.9566ZM12.0361 13.9819V14.9566C12.0361 15.3597 12.1294 15.7358 12.3159 16.0848C12.5085 16.4277 12.8514 16.5992 13.3448 16.5992C13.8743 16.5992 14.2263 16.4277 14.4008 16.0848C14.5813 15.7358 14.6715 15.3597 14.6715 14.9566V13.9819C14.6715 13.5787 14.5873 13.1997 14.4188 12.8447C14.2503 12.4837 13.8923 12.3031 13.3448 12.3031C12.8394 12.3031 12.4934 12.4867 12.3069 12.8537C12.1264 13.2207 12.0361 13.5968 12.0361 13.9819ZM10.4928 29L23.2005 10.5161H25.6644L12.9567 29H10.4928Z" fill="#F5F3F8"/>
</svg>
