<svg width="115" height="115" viewBox="0 0 115 115" fill="none" xmlns="http://www.w3.org/2000/svg">
<g clip-path="url(#clip0_401_2139)">
<path d="M58.8772 60.3923H74.3211C74.6503 60.3923 74.8058 60.3923 74.8295 59.9607C74.9557 58.3896 74.9557 56.8093 74.8295 55.2364C74.8295 54.931 74.6777 54.8048 74.3467 54.8048H43.6106C43.2302 54.8048 43.1278 54.931 43.1278 55.2876V59.8089C43.1278 60.3923 43.1278 60.3923 43.7368 60.3923H58.8772ZM73.1048 49.5208C73.1487 49.4056 73.1487 49.2794 73.1048 49.166C72.8469 48.6045 72.5415 48.0686 72.1867 47.5656C71.6526 46.706 71.0234 45.9141 70.3065 45.2026C69.9681 44.7728 69.5767 44.3869 69.1378 44.0595C66.9393 42.1884 64.3257 40.8642 61.5164 40.1985C60.0989 39.8802 58.6504 39.7284 57.1981 39.7412H43.5576C43.1772 39.7412 43.1259 39.893 43.1259 40.2241V49.241C43.1259 49.6214 43.1259 49.7238 43.6088 49.7238H72.9219C72.9219 49.7238 73.1761 49.6726 73.2274 49.5208H73.103H73.1048ZM73.1048 65.6762C72.6732 65.6287 72.2379 65.6287 71.8062 65.6762H43.6362C43.2558 65.6762 43.1278 65.6762 43.1278 66.1847V75.0004C43.1278 75.4064 43.1278 75.5088 43.6362 75.5088H56.6421C57.264 75.5564 57.8858 75.5125 58.4949 75.3826C60.3824 75.2473 62.2388 74.8376 64.0093 74.1627C64.6531 73.9396 65.2749 73.6488 65.862 73.2994H66.0395C69.0884 71.7137 71.5648 69.2226 73.1268 66.1646C73.1268 66.1646 73.3042 65.7805 73.1048 65.6799V65.6762ZM38.0231 80.0795V79.9277V74.0091V72.0027V66.0329C38.0231 65.7018 38.0231 65.6525 37.617 65.6525H32.1045C31.7991 65.6525 31.6729 65.6525 31.6729 65.2464V60.4197H37.5658C37.8951 60.4197 38.0231 60.4197 38.0231 59.9881V55.2126C38.0231 54.9072 38.0231 54.8322 37.617 54.8322H32.1045C31.7991 54.8322 31.6729 54.8322 31.6729 54.4262V49.9561C31.6729 49.6763 31.6729 49.6013 32.0789 49.6013H37.5402C37.9207 49.6013 38.0231 49.6013 38.0231 49.1184V35.4267C38.0231 35.0206 38.0231 34.9182 38.5315 34.9182H57.5822C58.9649 34.9731 60.3385 35.1249 61.6974 35.3755C64.4976 35.8931 67.1881 36.8935 69.648 38.322C71.2795 39.2822 72.7811 40.4417 74.1181 41.7769C75.124 42.8213 76.0312 43.9516 76.8359 45.155C77.6352 46.375 78.2991 47.679 78.8204 49.0416C78.8844 49.3965 79.2246 49.636 79.5794 49.5757H84.1263C84.7097 49.5757 84.7097 49.5757 84.7353 50.1354V54.3018C84.7353 54.7078 84.5835 54.8102 84.1757 54.8102H80.6695C80.3147 54.8102 80.2123 54.8102 80.2379 55.2675C80.3769 56.8148 80.3769 58.3676 80.2379 59.9149C80.2379 60.3466 80.2379 60.3978 80.7225 60.3978H84.7335C84.9109 60.6264 84.7335 60.855 84.7335 61.0855C84.7591 61.38 84.7591 61.6781 84.7335 61.9725V65.0471C84.7335 65.4787 84.6073 65.6067 84.225 65.6067H79.424C79.0893 65.5427 78.7637 65.7567 78.6869 66.0896C77.5438 69.0617 75.7148 71.7265 73.3517 73.8628C72.4884 74.6401 71.5813 75.3717 70.6339 76.0466C69.6169 76.6318 68.6275 77.2409 67.5849 77.7238C65.6663 78.587 63.6545 79.2235 61.5895 79.6277C59.6289 79.9789 57.6408 80.138 55.6453 80.1106H38.0158V80.085L38.0231 80.0795Z" fill="#FEFEFD"/>
</g>
<defs>
<clipPath id="clip0_401_2139">
<rect width="81.2874" height="81.2874" fill="white" transform="translate(16.7354 16.8787)"/>
</clipPath>
</defs>
</svg>
